<?xml version="1.0" encoding="UTF-8" standalone="no"?>
<svg
   xmlns:dc="http://purl.org/dc/elements/1.1/"
   xmlns:cc="http://creativecommons.org/ns#"
   xmlns:rdf="http://www.w3.org/1999/02/22-rdf-syntax-ns#"
   xmlns:svg="http://www.w3.org/2000/svg"
   xmlns="http://www.w3.org/2000/svg"
   xmlns:sodipodi="http://sodipodi.sourceforge.net/DTD/sodipodi-0.dtd"
   xmlns:inkscape="http://www.inkscape.org/namespaces/inkscape"
   width="297mm"
   height="210mm"
   viewBox="0 0 297 210"
   version="1.1"
   id="svg8"
   inkscape:version="1.0.2-2 (e86c870879, 2021-01-15)"
   sodipodi:docname="psychol.svg">
  <defs
     id="defs2" />
  <sodipodi:namedview
     id="base"
     pagecolor="#ffffff"
     bordercolor="#666666"
     borderopacity="1.0"
     inkscape:pageopacity="0"
     inkscape:pageshadow="2"
     inkscape:zoom="0.49497475"
     inkscape:cx="279.02577"
     inkscape:cy="488.84932"
     inkscape:document-units="mm"
     inkscape:current-layer="layer1"
     inkscape:document-rotation="0"
     showgrid="false"
     showborder="true"
     inkscape:showpageshadow="false"
     inkscape:window-width="1920"
     inkscape:window-height="1017"
     inkscape:window-x="-8"
     inkscape:window-y="-8"
     inkscape:window-maximized="1" />
  <metadata
     id="metadata5">
    <rdf:RDF>
      <cc:Work
         rdf:about="">
        <dc:format>image/svg+xml</dc:format>
        <dc:type
           rdf:resource="http://purl.org/dc/dcmitype/StillImage" />
        <dc:title></dc:title>
      </cc:Work>
    </rdf:RDF>
  </metadata>
  <g
     inkscape:label="Warstwa 1"
     inkscape:groupmode="layer"
     id="layer1">
    <path
       style="fill:#000000;stroke-width:0.264583"
       d="m 74.935944,178.00423 c -0.19239,-0.23181 -0.34702,-6.2198 -0.47811,-18.5142 -0.10657,-9.99437 -0.26532,-18.28467 -0.35277,-18.42289 -0.22491,-0.35544 -17.63524,-0.71969 -17.84925,-0.37343 -0.0905,0.14645 -0.049,6.28876 0.0922,13.64959 0.1412,7.36082 0.18696,13.56511 0.1017,13.7873 -0.21034,0.54813 -0.82619,0.5113 -0.98728,-0.059 -0.11609,-0.41103 -0.33977,-9.63306 -0.54904,-22.63577 -0.0393,-2.44512 -0.18393,-4.55806 -0.3213,-4.69542 -0.13736,-0.13736 -1.31578,-0.3219 -2.61871,-0.41009 -1.85544,-0.12559 -3.71674,0.0201 -8.58666,0.67202 -6.86295,0.91873 -7.13343,0.97242 -7.1673,1.4225 -0.013,0.1721 -0.0427,7.99065 -0.0662,17.37457 -0.0393,15.75781 -0.0766,17.06824 -0.48777,17.14773 -0.24484,0.0473 -0.55713,-0.12947 -0.69398,-0.39291 -0.14586,-0.28081 -0.37992,-13.45146 -0.56569,-31.83211 -0.17429,-17.24422 -0.36693,-31.53279 -0.42809,-31.75237 -0.0612,-0.21958 -0.37948,-0.51724 -0.70738,-0.66146 -0.91215,-0.40118 -0.8602,-1.07725 0.16124,-2.0987 1.11021,-1.11021 1.12405,-0.83847 -0.39846,-7.82081 -0.68043,-3.120508 -1.39006,-5.614089 -1.95767,-6.879159 -1.58,-3.5214 -2.24084,-6.47853 -2.24084,-10.02722 v -3.12444 l 1.6802,-3.54448 c 0.92411,-1.94947 1.89293,-4.19933 2.15294,-4.99969 0.26,-0.80037 0.68034,-1.87193 0.93408,-2.38125 0.25374,-0.50932 0.58476,-1.85829 0.7356,-2.9977 0.16406,-1.23932 0.45324,-2.26944 0.71975,-2.56393 0.48565,-0.53663 2.52504,-1.31754 3.44085,-1.31754 0.76321,0 1.44908,-0.79812 1.44908,-1.68625 0,-0.39519 -0.1699,-1.45738 -0.37755,-2.36041 -0.20765,-0.90304 -0.5239,-2.67982 -0.70276,-3.94842 l -0.32521,-2.30654 1.25328,-3.24971 c 1.57848,-4.09292 3.02756,-6.52787 4.7535,-7.98749 1.90398,-1.61019 2.31512,-1.7733 4.60827,-1.82813 1.69397,-0.0405 2.16836,0.045 2.82901,0.50991 0.43656,0.30723 1.27,0.70831 1.85208,0.89129 0.58209,0.18298 1.53459,0.63427 2.11667,1.00285 1.06155,0.67219 4.42514,4.66927 4.58109,5.44389 0.0457,0.22722 -0.18017,0.76931 -0.50203,1.20466 -0.56595,0.76548 -0.57521,0.87938 -0.28161,3.46138 0.44035,3.87249 0.40557,4.27285 -0.48534,5.58764 -0.69415,1.02441 -0.78952,1.39475 -0.79375,3.08252 -0.004,1.56135 -0.10327,2.01668 -0.53398,2.44739 -0.29105,0.29105 -0.65431,0.52917 -0.80726,0.52917 -0.15294,0 -0.46185,0.44649 -0.68647,0.99219 -0.22461,0.5457 -0.75432,1.3129 -1.17712,1.70488 -0.42281,0.39198 -0.76874,0.83432 -0.76874,0.98298 0,0.14866 0.35448,0.67402 0.78774,1.16747 0.43326,0.49345 1.14814,1.70046 1.58864,2.68224 0.4405,0.98179 1.14367,2.10526 1.56261,2.4966 0.41894,0.39135 1.3155,1.8654 1.99236,3.27567 1.21569,2.53293 1.72437,3.10214 2.77226,3.10214 0.41807,0 0.62749,-0.30624 0.94988,-1.38906 0.67126,-2.25455 0.73007,-3.15894 0.28607,-4.3989 -0.22801,-0.63676 -0.41456,-1.9706 -0.41456,-2.96411 0,-3.13482 0.0199,-3.11912 -4.69635,-3.71035 -1.34607,-0.16875 -2.4474,-0.4103 -2.4474,-0.53678 0,-0.31931 0.43839,-0.29296 3.45197,0.20753 2.47826,0.41158 2.66405,0.41058 3.13648,-0.017 0.36747,-0.33256 0.74453,-0.40901 1.40561,-0.28499 0.6567,0.1232 0.99796,0.0556 1.24958,-0.24761 0.45913,-0.55322 0.79281,-0.52598 1.48137,0.12088 0.50906,0.47824 0.61004,0.49293 0.90934,0.1323 0.52359,-0.63088 1.06699,-0.48082 1.36611,0.37725 0.15012,0.43061 0.50124,0.85539 0.78027,0.94396 0.27904,0.0886 0.62376,0.37856 0.76606,0.64444 0.46932,0.87696 0.62199,3.3825 0.28043,4.60245 -0.30331,1.08329 -0.27985,1.23366 0.34132,2.18795 0.36686,0.56359 0.80024,1.5605 0.96308,2.21534 0.16283,0.65484 0.58934,1.86239 0.94779,2.68344 0.75227,1.72309 0.77579,1.62619 -1.17011,4.82037 -1.24606,2.04541 -1.38513,2.41094 -1.13015,2.97055 0.19134,0.41994 0.51087,0.63814 0.9345,0.63814 0.35406,0 3.4583,-1.44147 6.898322,-3.20327 5.121524,-2.62297 6.383943,-3.17032 6.968699,-3.0214 2.446584,0.62308 2.141355,0.73746 9.869946,-3.69858 6.775209,-3.88882 8.968129,-4.89581 8.968129,-4.11818 0,0.57385 -4.03422,13.37253 -4.33515,13.75339 -0.16228,0.20539 -1.526429,0.94889 -3.031429,1.65221 -1.96428,0.91796 -2.77799,1.4379 -2.88385,1.84271 -0.15681,0.59966 -0.6294,1.53497 -2.401646,4.75318 -0.60787,1.10382 -1.02607,2.086079 -0.92934,2.182809 0.47959,0.47959 1.979586,0.0844 3.930526,-1.035489 3.6793,-2.11204 4.414529,-2.40115 7.960739,-3.13031 2.63343,-0.54147 3.81042,-0.66806 4.8855,-0.52545 1.95311,0.25909 4.23675,1.64237 5.31956,3.222231 0.47045,0.686408 2.53468,3.510198 4.58719,6.275098 2.05251,2.76489 5.25962,7.22974 7.12691,9.92187 1.8673,2.69214 3.95422,5.54964 4.63761,6.35 2.15996,2.52966 3.17921,4.25046 3.17921,5.36742 0,1.21765 0.4663,2.17109 1.58046,3.23154 0.8323,0.79218 0.84114,0.79392 4.46499,0.87891 3.36901,0.079 3.7615,0.0361 5.43897,-0.59535 0.99436,-0.37428 2.4939,-1.09721 3.33231,-1.60651 1.56122,-0.9484 2.55354,-1.13559 3.45692,-0.65212 0.72148,0.38613 0.64566,0.94811 -0.44888,3.32687 -1.89605,4.1207 -4.46362,7.31796 -6.86837,8.55284 -0.59518,0.30563 -2.02393,0.73138 -3.175,0.94611 -3.66583,0.68385 -3.37274,0.49969 -3.17443,1.99459 l 0.17373,1.30965 -1.63762,1.05844 c -1.89669,1.22589 -3.33556,1.37995 -5.15817,0.55226 -1.94197,-0.88188 -3.88776,-4.21818 -4.30538,-7.3821 -0.25896,-1.96183 -0.82239,-3.22422 -1.43903,-3.22422 -0.18644,0 -0.90763,0.36063 -1.60264,0.80139 -0.69501,0.44077 -1.61608,0.84243 -2.0468,0.89258 -0.43073,0.0502 -0.85694,0.16497 -0.94713,0.25516 -0.0902,0.0902 0.0908,2.04002 0.40224,4.33295 0.31143,2.29293 0.69405,5.77631 0.85028,7.74084 0.17359,2.18294 0.49937,4.23503 0.8378,5.27729 l 0.55377,1.70541 -0.58405,0.41126 c -1.89274,1.33275 -1.98847,1.47572 -1.98199,2.9599 0.005,1.24506 0.19896,1.75476 1.57011,4.13525 1.88963,3.28064 3.34571,4.85786 5.85938,6.34683 1.61461,0.95641 2.11578,1.12448 3.35313,1.12448 1.17909,0 1.60908,0.12981 2.26885,0.68497 0.90528,0.76174 1.05667,1.54598 0.35103,1.81846 -0.25466,0.0983 -1.83224,0.28708 -3.50573,0.41943 -1.67349,0.13234 -4.09076,0.38004 -5.37172,0.55044 -2.17775,0.28969 -2.37536,0.27575 -3.0427,-0.21466 -3.44415,-2.53098 -5.07933,-3.28674 -5.07933,-2.3476 0,1.15758 -2.8736,1.5809 -5.47913,0.80714 l -1.34185,-0.39849 -0.85694,-2.12587 c -0.76605,-1.90039 -0.84375,-2.33148 -0.73254,-4.06435 0.0976,-1.52108 0.33857,-2.39485 1.11901,-4.05795 0.75963,-1.61875 0.93381,-2.23649 0.73727,-2.61477 -0.14154,-0.27241 -0.33904,-1.09061 -0.43888,-1.81821 -0.0998,-0.72761 -0.6149,-3.08914 -1.14457,-5.24785 l -0.96304,-3.92493 0.62538,-1.83691 c 0.55965,-1.64387 0.5929,-1.97762 0.31633,-3.17575 -0.45082,-1.95308 -3.73833,-9.47136 -4.26471,-9.75307 -0.69259,-0.37066 -10.402289,-1.72472 -10.925809,-1.52365 -0.562456,0.21604 -0.573176,1.40694 -0.19753,21.94602 0.14028,7.67049 0.18473,14.12963 0.0988,14.35364 -0.1288,0.33567 -0.795886,0.58017 -0.930736,0.34114 -0.0205,-0.0364 -0.10982,-7.82908 -0.19844,-17.31712 -0.11441,-12.25044 -0.24757,-17.33739 -0.45937,-17.54908 -0.22121,-0.22111 -0.52894,-0.0956 -1.191422,0.48612 -1.547762,1.35895 -4.480539,2.38736 -8.331957,2.92169 -2.891353,0.40113 -3.687397,0.614 -4.762502,1.2735 -0.70998,0.43552 -1.44052,1.0801 -1.62343,1.43239 -0.25355,0.48835 -0.29873,2.30631 -0.1902,7.65198 0.0783,3.85631 0.0494,12.12965 -0.0643,18.38521 -0.1833,10.08753 -0.2543,11.3829 -0.62788,11.45458 -0.23166,0.0444 -0.54916,-0.0734 -0.70556,-0.26181 z m -31.03001,-39.25519 c 6.68854,-0.90533 7.94741,-1.17158 7.94741,-1.68087 0,-0.43107 -0.84894,-0.54821 -4.05654,-0.55975 -3.68641,-0.0132 -5.49925,-0.47593 -6.34074,-1.61828 -0.7701,-1.04545 -0.44077,-2.21859 1.10767,-3.94572 l 1.2873,-1.43587 h 4.85646 c 4.47896,0 4.86371,-0.0373 4.94981,-0.47975 0.098,-0.5035 -2.52927,-5.1322 -3.25484,-5.73436 -0.35373,-0.29357 -0.62015,-0.25837 -1.66786,0.22036 -0.68579,0.31336 -1.9896,0.73745 -2.89735,0.94243 -1.56918,0.35434 -1.83597,0.33452 -5.41708,-0.40241 -2.07164,-0.42631 -3.91854,-0.71681 -4.10423,-0.64556 -0.47341,0.18167 -0.49269,15.49566 -0.0201,15.96824 0.39661,0.39661 -0.52604,0.47281 7.6101,-0.62846 z m 206.223386,38.04973 c -0.44173,-0.29226 -0.87694,-1.2433 -3.5396,-7.73502 -1.34296,-3.27422 -3.63153,-8.51296 -5.08571,-11.64166 -2.57049,-5.53046 -2.72926,-5.79404 -5.71321,-9.48448 -2.83505,-3.50629 -4.99718,-5.56574 -6.85533,-6.52975 -0.62087,-0.32211 -0.77403,-0.31903 -1.15221,0.0232 -0.38903,0.35207 -0.90465,0.28232 -4.77314,-0.64571 -6.89767,-1.65473 -19.19562,-3.42946 -20.45261,-2.95156 -0.33729,0.12824 -0.68902,0.43061 -0.78163,0.67194 -0.0926,0.24132 -0.16838,5.65928 -0.16838,12.0399 0,10.29949 -0.0477,11.6488 -0.4249,12.02604 -0.32646,0.32645 -0.50976,0.35449 -0.79111,0.12099 -0.30018,-0.24913 -0.37859,-2.47984 -0.43498,-12.37482 -0.0636,-11.15776 -0.10311,-12.07752 -0.52237,-12.15822 -0.29719,-0.0572 -0.50003,0.124 -0.58833,0.52559 -0.0741,0.33709 -0.24373,8.51135 -0.37691,18.16503 -0.17219,12.48175 -0.32917,17.63917 -0.54342,17.85343 -0.21886,0.21885 -0.42599,0.22258 -0.75703,0.0137 -0.42396,-0.26758 -0.45967,-1.69702 -0.51213,-20.49926 -0.0377,-13.5098 0.0369,-20.62835 0.22483,-21.46839 l 0.28122,-1.25677 h 1.27869 c 1.47421,0 1.73018,-0.36687 1.42265,-2.03896 -0.22754,-1.23709 -0.44878,-1.39147 -2.00149,-1.39658 -1.02158,-0.003 -1.42462,-0.1652 -2.3623,-0.9486 -0.64169,-0.53612 -1.31037,-0.88705 -1.54638,-0.81155 -1.81188,0.57956 -3.56903,0.97328 -4.91375,1.101 -2.29509,0.21798 -4.95237,0.68684 -5.50276,0.97092 -0.86367,0.44578 -1.02455,1.59765 -1.12156,8.03034 -0.0528,3.49897 -0.22948,6.95179 -0.3927,7.67291 -0.45545,2.01225 -0.0831,5.1612 0.88982,7.52533 0.67235,1.63374 0.83556,2.43828 0.91614,4.51595 0.11511,2.96776 0.0999,2.99042 -2.35004,3.50954 -0.93462,0.19804 -2.16686,0.67978 -2.7383,1.07055 -0.57145,0.39076 -1.34535,0.77296 -1.7198,0.84934 -2.67614,0.54587 -2.77944,0.72429 -1.71167,2.95657 0.65705,1.37362 0.73299,1.83486 0.78197,4.74972 0.0763,4.54303 -0.0683,4.64027 -7.02714,4.72503 -3.59848,0.0438 -5.52257,0.21046 -8.63495,0.74785 -5.27977,0.91162 -8.71862,0.92144 -12.62175,0.0361 -4.98549,-1.13089 -6.72459,-2.28266 -6.10536,-4.04343 0.13709,-0.38982 0.65225,-0.98033 1.14479,-1.31226 0.78948,-0.53203 1.22087,-0.60349 3.64287,-0.60349 3.09444,0 4.73832,-0.43015 7.89003,-2.06452 2.43924,-1.26492 6.05158,-4.76115 6.44874,-6.24147 0.32634,-1.21635 0.0367,-1.95226 -0.83398,-2.11917 -0.5532,-0.10604 -3.47998,-0.81746 -6.37974,-1.55072 -1.72065,-0.4351 -1.94524,-0.83801 -1.53991,-2.76254 0.17763,-0.8434 0.46021,-3.1408 0.62797,-5.10533 0.26641,-3.1199 0.25074,-3.75599 -0.12385,-5.02681 l -0.42886,-1.45494 0.71394,-1.03022 c 0.9386,-1.35439 1.30446,-4.3772 1.63666,-13.52241 0.28821,-7.93387 0.88711,-12.15513 1.99205,-14.04057 1.35359,-2.30973 4.42952,-3.46496 10.32239,-3.8768 l 3.96875,-0.27737 1.21839,-1.25351 c 2.04245,-2.10134 4.25508,-2.51711 14.9212,-2.80384 6.74091,-0.18121 7.08807,-0.23129 9.92187,-1.43135 1.09141,-0.46218 2.92718,-1.00856 4.07949,-1.21418 1.68746,-0.3011 2.35671,-0.57016 3.43958,-1.38282 0.73946,-0.55494 1.96263,-1.34316 2.71815,-1.751589 0.75552,-0.40844 1.43405,-0.899939 1.50784,-1.09222 0.0738,-0.19228 -0.32556,-2.0129 -0.88743,-4.04581 -0.56187,-2.03292 -1.15537,-4.39052 -1.3189,-5.23911 -0.16353,-0.8486 -0.6098,-2.84486 -0.99171,-4.43614 l -0.69438,-2.89322 0.58768,-0.41407 c 1.78918,-1.2606 1.85446,-1.37516 2.14046,-3.75652 0.15088,-1.25626 0.51083,-2.97155 0.7999,-3.81173 0.28906,-0.84019 0.53184,-2.13405 0.53949,-2.87525 0.008,-0.74121 0.16909,-2.21467 0.35874,-3.27438 0.38997,-2.17899 1.00105,-3.03722 2.51052,-3.5259 1.56581,-0.50693 4.00947,-1.81525 4.16952,-2.23235 0.0821,-0.214 -0.0424,-0.79307 -0.27669,-1.28683 -0.23431,-0.49376 -0.42601,-1.33722 -0.42601,-1.87436 0,-0.57599 -0.21707,-1.25258 -0.52916,-1.64934 -0.67356,-0.85628 -0.66465,-1.30633 0.0486,-2.45345 0.31667,-0.50932 0.65801,-1.46182 0.75855,-2.11666 0.27602,-1.79797 1.04783,-4.51621 1.57763,-5.55625 1.19977,-2.35526 3.77874,-4.07327 7.70515,-5.13288 6.50822,-1.75634 10.05478,-0.10518 12.41001,5.77769 1.06188,2.65238 0.9952,3.93701 -0.35969,6.92911 -1.50199,3.31697 -1.30279,5.39047 0.59333,6.17586 0.50983,0.21118 0.98797,0.72924 1.33536,1.44686 0.29764,0.61484 1.20276,1.94173 2.01138,2.94864 0.80862,1.00692 2.12366,2.81621 2.92231,4.02065 0.79866,1.20444 1.55714,2.12498 1.68553,2.04563 0.33139,-0.20481 0.95747,-2.49398 1.48402,-5.42615 0.41625,-2.31791 0.52983,-2.58685 1.45935,-3.45541 2.29611,-2.14555 3.21164,-2.02723 2.6348,0.34049 -1.31586,5.40103 -6.69623,31.86482 -7.53747,37.073649 -1.02285,6.33328 -1.24914,8.44181 -1.77236,16.51419 -0.26704,4.11997 -0.26509,5.77709 0.0102,8.64576 0.18731,1.95188 0.27432,3.65607 0.19335,3.78708 -0.081,0.13101 0.0278,1.77682 0.24161,3.65736 0.21385,1.88054 0.56544,5.08604 0.78131,7.12334 0.802,7.56902 1.44905,10.78012 3.30548,16.40416 1.39199,4.21698 3.43661,12.71603 3.43661,14.28523 0,0.56953 0.41715,1.76973 1.05833,3.04498 1.19906,2.38481 1.26728,2.77997 0.54656,3.16569 -0.60203,0.3222 -0.59443,0.32164 -0.97266,0.0714 z m -8.04057,-28.98106 c 0,-0.29907 -0.35459,-2.27878 -0.78797,-4.39938 -0.43339,-2.12059 -1.03168,-5.51952 -1.32953,-7.55317 -0.29786,-2.03366 -0.64711,-3.80311 -0.77613,-3.93212 -0.27637,-0.27637 -10.98302,-0.79623 -11.86594,-0.57614 -0.81864,0.20406 -0.5464,0.60721 1.39812,2.07036 4.08332,3.07252 8.11537,7.85339 10.97615,13.01462 1.20693,2.17747 1.58155,2.58663 2.02859,2.21563 0.19619,-0.16283 0.35671,-0.54074 0.35671,-0.8398 z m -3.175,-0.2281 c 0,-1.66108 -4.62701,-7.88986 -8.14687,-10.96714 -2.08126,-1.81956 -2.33652,-1.966 -3.33723,-1.9146 -0.59598,0.0306 -2.35965,-0.26589 -3.91926,-0.65889 -2.52213,-0.63555 -8.14472,-1.58576 -8.32377,-1.4067 -0.0376,0.0376 1.02908,0.46286 2.3705,0.94495 7.04177,2.53072 13.44722,6.74679 18.35055,12.07834 2.32256,2.52538 3.00608,2.96288 3.00608,1.92404 z m -0.41057,-24.6295 c 0.0561,-0.1819 0.16416,-3.96214 0.24016,-8.40052 l 0.13816,-8.06979 -0.75089,0.88403 c -0.413,0.48621 -0.95721,1.43871 -1.20938,2.11666 -0.25216,0.67795 -1.08666,2.42326 -1.85445,3.87847 -1.44857,2.74549 -2.76761,6.46956 -2.76761,7.81383 0,0.59029 0.14191,0.80488 0.59531,0.90017 0.32742,0.0688 1.19063,0.24227 1.91823,0.38544 0.72761,0.14317 1.62057,0.37924 1.98438,0.5246 0.92395,0.36918 1.58604,0.35642 1.70609,-0.0329 z M 221.39216,69.340661 c 1.05028,-1.39664 1.64312,-2.42779 1.59343,-2.77151 -0.10391,-0.7188 -1.12956,-1.21331 -2.52652,-1.21816 -1.12267,-0.004 -1.12448,-0.002 -1.12448,0.98317 0,2.15458 -2.25226,6.0677 -4.25529,7.39324 -1.1339,0.75038 -1.56555,1.57891 -1.56555,3.00501 v 1.04168 l 3.10292,-3.10465 c 1.70661,-1.70755 3.85558,-4.10551 4.77549,-5.32878 z"
       id="path1430" />
  </g>
</svg>
